<?xml version="1.0" encoding="UTF-8" standalone="no"?>
<!-- Created with Inkscape (http://www.inkscape.org/) -->

<svg
   width="2321mm"
   height="717.96271mm"
   viewBox="0 0 2321 717.96271"
   version="1.1"
   id="svg5"
   xml:space="preserve"
   sodipodi:docname="komtekLogoVit.svg"
   inkscape:version="1.2 (dc2aedaf03, 2022-05-15)"
   xmlns:inkscape="http://www.inkscape.org/namespaces/inkscape"
   xmlns:sodipodi="http://sodipodi.sourceforge.net/DTD/sodipodi-0.dtd"
   xmlns="http://www.w3.org/2000/svg"
   xmlns:svg="http://www.w3.org/2000/svg"><sodipodi:namedview
     id="namedview12"
     pagecolor="#ffffff"
     bordercolor="#666666"
     borderopacity="1.0"
     inkscape:showpageshadow="2"
     inkscape:pageopacity="0.0"
     inkscape:pagecheckerboard="0"
     inkscape:deskcolor="#d1d1d1"
     inkscape:document-units="mm"
     showgrid="false"
     inkscape:zoom="0.086970627"
     inkscape:cx="4386.5385"
     inkscape:cy="1362.529"
     inkscape:window-width="1920"
     inkscape:window-height="1001"
     inkscape:window-x="-9"
     inkscape:window-y="-9"
     inkscape:window-maximized="1"
     inkscape:current-layer="svg5" /><defs
     id="defs2" /><g
     id="layer1"
     style="fill:#ffffff;fill-opacity:1"
     transform="translate(669.28727,200.78618)"><g
       transform="matrix(0.03527778,0,0,-0.03527778,-330.11474,239.91652)"
       fill="#000000"
       stroke="none"
       id="g164"
       style="fill:#ffffff;fill-opacity:1"><path
         d="M 175,7154 C 111,7111 50,7049 24,6998 2,6954 0,6939 0,6808 c 0,-79 7,-237 14,-353 8,-115 18,-388 21,-605 5,-294 17,-546 46,-988 25,-378 39,-668 39,-800 0,-229 14,-633 30,-872 18,-264 39,-435 85,-695 53,-298 79,-477 100,-680 8,-82 31,-220 50,-305 73,-316 83,-374 90,-525 8,-191 18,-274 59,-515 18,-107 38,-232 44,-278 14,-99 35,-148 76,-173 41,-25 98,-25 121,1 30,33 33,96 18,418 -16,352 -13,455 28,862 16,162 34,390 39,505 6,116 15,255 21,310 5,55 14,190 19,300 10,222 24,291 67,324 62,49 94,36 618,-259 160,-90 382,-210 495,-266 199,-100 503,-276 625,-362 33,-23 114,-79 180,-124 66,-44 163,-116 215,-158 153,-124 243,-185 324,-219 83,-35 179,-88 223,-125 15,-12 39,-29 52,-36 42,-22 304,-71 413,-77 97,-5 109,-4 141,16 47,29 82,99 74,148 -8,47 -31,70 -130,131 -192,117 -649,451 -864,631 -163,135 -245,212 -658,616 -465,454 -778,730 -995,878 -185,126 -233,184 -232,283 1,108 58,185 257,342 247,196 340,280 498,451 89,97 256,272 372,389 171,174 243,239 392,353 152,116 212,171 365,331 101,105 269,277 375,382 l 192,191 55,115 c 84,173 77,226 -30,224 -103,-1 -203,-66 -702,-462 -357,-284 -483,-374 -727,-522 -296,-180 -341,-211 -474,-329 -63,-56 -164,-137 -225,-180 -61,-43 -154,-114 -207,-158 -52,-43 -138,-109 -190,-145 -97,-68 -125,-93 -218,-191 -54,-57 -110,-85 -144,-71 -9,3 -24,27 -34,52 -15,40 -18,77 -17,252 0,181 5,243 43,530 59,456 76,565 112,730 42,192 43,297 6,433 -44,159 -116,288 -203,360 -40,33 -338,209 -398,236 -80,35 -158,51 -248,51 -73,0 -88,-3 -123,-26 z"
         id="path152"
         style="fill:#ffffff;fill-opacity:1" /><path
         d="m 12660,7130 c -93,-9 -151,-28 -188,-63 -26,-24 -119,-185 -158,-274 -50,-112 -87,-474 -61,-595 11,-53 50,-96 95,-104 49,-9 245,12 407,44 114,22 162,26 395,29 146,2 290,0 320,-4 l 55,-8 7,-50 c 42,-293 90,-1326 103,-2225 4,-234 11,-497 16,-585 22,-365 22,-475 4,-700 -14,-173 -16,-272 -11,-464 4,-155 10,-249 17,-258 16,-19 63,-16 82,5 24,26 44,80 89,232 21,74 43,139 48,145 20,24 53,181 115,550 36,215 75,428 86,475 11,47 44,240 74,430 30,190 65,392 79,450 27,116 85,451 113,660 15,110 18,203 18,505 0,471 -13,566 -98,693 -60,89 -125,197 -131,220 -10,32 1,57 30,71 49,22 809,134 1031,151 70,6 218,19 328,30 110,11 277,24 370,30 94,6 235,19 314,29 126,16 147,21 163,41 41,51 12,113 -70,148 -117,51 -706,123 -1232,152 -481,26 -1027,85 -1595,170 -430,65 -656,84 -815,70 z"
         id="path154"
         style="fill:#ffffff;fill-opacity:1" /><path
         d="m 10765,6692 c -94,-69 -233,-240 -324,-400 -53,-93 -249,-535 -379,-857 -42,-104 -117,-271 -167,-370 -85,-171 -92,-180 -123,-186 -27,-5 -39,-2 -63,18 -50,43 -99,161 -99,241 0,48 -125,528 -161,619 -46,116 -130,290 -173,357 -49,76 -237,289 -279,314 -121,74 -252,96 -332,54 -110,-56 -190,-156 -327,-409 -125,-231 -209,-413 -278,-603 -28,-80 -106,-278 -172,-439 -173,-424 -236,-607 -364,-1057 -133,-469 -166,-679 -180,-1139 -8,-236 -1,-263 66,-284 56,-18 218,-4 401,35 158,33 217,56 273,106 86,75 126,191 146,418 33,393 63,577 148,935 47,195 90,344 130,455 69,190 92,272 122,425 36,185 68,301 111,397 22,51 46,96 52,100 6,4 19,2 29,-3 26,-14 83,-141 108,-239 28,-109 87,-274 212,-585 116,-291 222,-512 307,-643 34,-51 76,-126 95,-166 36,-78 55,-96 106,-96 63,0 102,75 169,327 22,81 65,222 96,311 87,258 337,941 408,1117 36,88 79,196 97,240 52,129 63,150 84,150 13,0 23,-12 32,-38 13,-37 20,-80 59,-372 9,-66 36,-210 61,-320 74,-326 94,-432 109,-579 19,-179 44,-326 105,-611 50,-236 58,-288 85,-556 19,-186 30,-231 89,-374 25,-60 46,-123 46,-139 0,-46 27,-137 85,-285 29,-76 68,-188 85,-247 36,-129 64,-164 130,-164 89,0 96,54 81,692 -15,667 -14,1513 3,1934 15,352 15,333 -20,659 -5,48 1,98 31,245 20,102 37,212 37,245 -1,103 -86,455 -133,546 -10,20 -33,49 -51,64 -49,42 -205,114 -273,126 -33,6 -82,20 -110,31 -27,11 -72,22 -100,25 -44,4 -55,1 -90,-25 z"
         id="path156"
         style="fill:#ffffff;fill-opacity:1" /><path
         d="m 19684,6565 c -184,-50 -308,-153 -334,-278 -5,-29 -20,-185 -33,-347 -19,-254 -22,-358 -20,-750 2,-372 -1,-506 -17,-733 -26,-360 -25,-478 5,-917 31,-432 33,-602 11,-845 -32,-360 -36,-507 -26,-930 6,-225 17,-473 25,-550 9,-77 15,-216 14,-310 -1,-183 5,-214 46,-241 38,-25 49,-8 73,111 11,55 48,177 82,270 71,196 154,522 170,669 6,55 27,193 45,306 19,113 48,313 65,445 31,235 86,512 118,588 18,43 46,67 78,67 12,0 100,-38 194,-85 172,-86 173,-86 305,-211 186,-176 237,-211 420,-296 183,-84 269,-137 371,-228 102,-89 223,-174 419,-291 210,-127 627,-394 757,-486 53,-37 157,-117 230,-176 167,-137 369,-272 429,-288 63,-17 99,-7 99,29 0,34 -9,47 -140,203 -58,69 -178,217 -267,330 -89,112 -204,249 -254,304 -523,568 -1045,1083 -1394,1375 -77,65 -214,186 -304,269 -90,83 -189,167 -221,186 -60,36 -87,77 -76,113 4,11 50,57 104,103 195,168 399,357 566,524 94,94 209,201 256,237 47,36 135,112 195,168 122,113 247,213 315,252 50,30 210,165 472,401 183,164 239,231 279,336 25,68 25,127 0,141 -32,17 -93,12 -186,-15 -122,-36 -241,-95 -338,-168 -45,-35 -183,-131 -307,-215 -124,-83 -263,-183 -310,-222 -47,-39 -132,-103 -190,-142 -180,-122 -244,-173 -367,-290 -71,-66 -156,-136 -208,-168 -49,-30 -165,-106 -259,-169 -94,-63 -189,-121 -211,-129 -75,-26 -144,-41 -164,-35 -27,7 -40,55 -29,113 27,144 40,336 50,785 20,806 18,846 -47,981 -85,174 -292,263 -491,209 z"
         id="path158"
         style="fill:#ffffff;fill-opacity:1" /><path
         d="m 17165,5370 c -164,-14 -311,-46 -424,-93 -91,-37 -546,-284 -609,-331 -69,-51 -266,-256 -366,-381 -113,-141 -237,-328 -287,-431 -128,-264 -128,-784 1,-1070 95,-211 371,-538 595,-707 134,-100 221,-139 450,-201 246,-68 315,-80 419,-74 102,6 186,35 419,144 98,46 184,84 191,84 7,0 55,25 107,57 111,67 159,89 216,98 48,8 135,57 207,119 28,23 85,67 126,97 88,65 120,113 102,153 -21,46 -70,36 -237,-48 -187,-95 -284,-127 -525,-171 -273,-50 -425,-62 -598,-47 -232,20 -321,53 -458,169 -186,159 -316,376 -331,551 -11,138 53,383 137,521 25,42 79,119 120,171 41,53 124,165 185,250 130,184 236,294 364,379 124,82 209,124 339,168 103,34 111,35 218,31 133,-6 209,-34 244,-90 20,-30 21,-43 16,-158 -9,-219 -31,-266 -209,-445 -120,-119 -141,-136 -227,-179 -89,-45 -103,-48 -206,-57 -127,-10 -202,-31 -336,-93 -101,-48 -134,-77 -144,-131 -21,-113 126,-225 295,-225 90,0 489,47 597,71 133,29 184,49 289,115 97,61 198,114 216,114 23,0 139,91 237,188 79,77 108,113 132,163 71,152 66,273 -20,531 -81,242 -196,424 -329,522 -26,19 -93,56 -149,81 -55,25 -137,66 -182,91 -116,64 -166,74 -345,73 -82,-1 -190,-5 -240,-9 z"
         id="path160"
         style="fill:#ffffff;fill-opacity:1" /><path
         d="m 5140,5354 c -79,-10 -262,-47 -370,-75 -182,-48 -234,-78 -400,-230 -290,-264 -421,-405 -494,-528 -46,-80 -116,-259 -155,-396 -53,-192 -65,-276 -66,-450 0,-155 1,-163 33,-254 89,-257 336,-645 542,-852 191,-191 484,-344 730,-380 145,-21 407,3 559,52 98,31 165,68 400,224 314,206 403,286 518,462 112,171 181,347 204,519 19,145 -16,530 -62,680 -18,57 -123,228 -182,294 -23,25 -90,75 -176,132 -14,10 -37,18 -49,18 -34,0 -88,-58 -102,-109 -13,-49 -8,-81 26,-166 35,-90 82,-293 95,-411 18,-168 -6,-269 -110,-471 -134,-261 -260,-405 -444,-508 -59,-33 -149,-91 -200,-128 -50,-38 -117,-81 -147,-96 -53,-25 -61,-26 -230,-26 -203,0 -288,15 -401,72 -140,70 -244,212 -286,390 -22,97 -25,311 -4,393 22,89 126,315 185,403 78,118 293,296 442,367 61,29 198,70 235,70 67,0 273,135 387,254 99,104 152,202 159,300 5,59 3,72 -25,129 -58,116 -173,231 -292,290 -60,30 -72,32 -175,33 -60,1 -126,0 -145,-2 z"
         id="path162"
         style="fill:#ffffff;fill-opacity:1" /></g></g></svg>
